<svg width="25" height="24" viewBox="0 0 25 24" fill="none" xmlns="http://www.w3.org/2000/svg">
<rect width="25" height="24" fill="#1E1E1E"/>
<g id="&#240;&#159;&#146;&#187;">
<path d="M-288 -714C-288 -741.614 -265.614 -764 -238 -764H1505C1532.61 -764 1555 -741.614 1555 -714V1539C1555 1566.61 1532.61 1589 1505 1589H-238C-265.614 1589 -288 1566.61 -288 1539V-714Z" fill="#242424"/>
<g id="Portfolio">
<rect width="1440" height="1767" transform="translate(-79.5 -392)" fill="#22212C"/>
<g id="Links">
<g id="Rectangle 4" filter="url(#filter0_d_3_2)">
<rect x="-39.5" y="-30" width="348" height="348" rx="20" fill="#302F3D"/>
</g>
<g id="map-pin">
<path id="Vector" d="M21.5 10C21.5 17 12.5 23 12.5 23C12.5 23 3.5 17 3.5 10C3.5 7.61305 4.44821 5.32387 6.13604 3.63604C7.82387 1.94821 10.1131 1 12.5 1C14.8869 1 17.1761 1.94821 18.864 3.63604C20.5518 5.32387 21.5 7.61305 21.5 10Z" stroke="#837E9F" stroke-width="2" stroke-linecap="round" stroke-linejoin="round"/>
<path id="Vector_2" d="M12.5 13C14.1569 13 15.5 11.6569 15.5 10C15.5 8.34315 14.1569 7 12.5 7C10.8431 7 9.5 8.34315 9.5 10C9.5 11.6569 10.8431 13 12.5 13Z" stroke="#837E9F" stroke-width="2" stroke-linecap="round" stroke-linejoin="round"/>
</g>
</g>
</g>
</g>
<defs>
<filter id="filter0_d_3_2" x="-40.5" y="-31" width="354" height="354" filterUnits="userSpaceOnUse" color-interpolation-filters="sRGB">
<feFlood flood-opacity="0" result="BackgroundImageFix"/>
<feColorMatrix in="SourceAlpha" type="matrix" values="0 0 0 0 0 0 0 0 0 0 0 0 0 0 0 0 0 0 127 0" result="hardAlpha"/>
<feMorphology radius="1" operator="dilate" in="SourceAlpha" result="effect1_dropShadow_3_2"/>
<feOffset dx="2" dy="2"/>
<feGaussianBlur stdDeviation="1"/>
<feComposite in2="hardAlpha" operator="out"/>
<feColorMatrix type="matrix" values="0 0 0 0 0 0 0 0 0 0 0 0 0 0 0 0 0 0 0.2 0"/>
<feBlend mode="normal" in2="BackgroundImageFix" result="effect1_dropShadow_3_2"/>
<feBlend mode="normal" in="SourceGraphic" in2="effect1_dropShadow_3_2" result="shape"/>
</filter>
</defs>
</svg>
